# Blender v3.1.2 OBJ File: 'car.blend'
# www.blender.org
mtllib car.mtl
o wheel_back_wheel
v 1.069433 1.893734 -9.974049
v 1.069433 1.622048 -9.318140
v 1.069433 0.966139 -9.046453
v 1.069433 0.310230 -9.318140
v 1.069433 0.038544 -9.974049
v 1.069433 0.310231 -10.629957
v 1.069433 0.966139 -10.901644
v 1.069433 1.622048 -10.629957
v 1.937256 1.622048 -9.318140
v 1.937256 1.893734 -9.974049
v 1.937256 0.966139 -9.046453
v 1.937256 0.310230 -9.318140
v 1.937256 0.038544 -9.974049
v 1.937256 0.310231 -10.629957
v 1.937256 0.966139 -10.901644
v 1.937256 1.622048 -10.629957
v -1.069433 1.893734 -9.974049
v -1.069433 1.622048 -9.318139
v -1.069433 0.966139 -9.046453
v -1.069433 0.310231 -9.318139
v -1.069433 0.038544 -9.974049
v -1.069433 0.310231 -10.629957
v -1.069433 0.966139 -10.901644
v -1.069433 1.622048 -10.629957
v -1.937256 1.622048 -9.318139
v -1.937256 1.893734 -9.974049
v -1.937256 0.966139 -9.046453
v -1.937256 0.310231 -9.318139
v -1.937256 0.038544 -9.974049
v -1.937256 0.310231 -10.629957
v -1.937256 0.966139 -10.901644
v -1.937256 1.622048 -10.629957
vt 0.276516 0.720464
vt 0.520581 0.821559
vt 0.764646 0.720464
vt 0.865741 0.476399
vt 0.764646 0.232334
vt 0.520581 0.131239
vt 0.276516 0.232334
vt 0.175421 0.476399
vt 0.276516 0.720464
vt 0.175421 0.476399
vt 0.276516 0.232334
vt 0.520581 0.131239
vt 0.764646 0.232334
vt 0.865741 0.476399
vt 0.764646 0.720464
vt 0.520581 0.821559
vt 0.377617 0.720091
vt 0.266205 0.720091
vt 0.266205 0.681244
vt 0.377617 0.681244
vt 0.377617 0.720091
vt 0.266205 0.720091
vt 0.266205 0.681244
vt 0.377617 0.681244
vt 0.377617 0.720091
vt 0.266205 0.720091
vt 0.266205 0.681244
vt 0.377617 0.681244
vt 0.377617 0.720091
vt 0.266205 0.720091
vt 0.266205 0.681244
vt 0.377617 0.681244
vt 0.377617 0.720091
vt 0.266205 0.720091
vt 0.266205 0.681244
vt 0.377617 0.681244
vt 0.377617 0.720091
vt 0.266205 0.720091
vt 0.266205 0.681244
vt 0.377617 0.681244
vt 0.377617 0.720091
vt 0.266205 0.720091
vt 0.266205 0.681244
vt 0.377617 0.681244
vt 0.377617 0.720091
vt 0.266205 0.720091
vt 0.266205 0.681244
vt 0.377617 0.681244
vt 0.276516 0.720464
vt 0.175421 0.476399
vt 0.276516 0.232334
vt 0.520581 0.131239
vt 0.764646 0.232334
vt 0.865741 0.476399
vt 0.764646 0.720464
vt 0.520581 0.821559
vt 0.276516 0.720464
vt 0.520581 0.821559
vt 0.764646 0.720464
vt 0.865741 0.476399
vt 0.764646 0.232334
vt 0.520581 0.131239
vt 0.276516 0.232334
vt 0.175421 0.476399
vt 0.377617 0.720091
vt 0.377617 0.681244
vt 0.266205 0.681244
vt 0.266205 0.720091
vt 0.377617 0.720091
vt 0.377617 0.681244
vt 0.266205 0.681244
vt 0.266205 0.720091
vt 0.377617 0.720091
vt 0.377617 0.681244
vt 0.266205 0.681244
vt 0.266205 0.720091
vt 0.377617 0.720091
vt 0.377617 0.681244
vt 0.266205 0.681244
vt 0.266205 0.720091
vt 0.377617 0.720091
vt 0.377617 0.681244
vt 0.266205 0.681244
vt 0.266205 0.720091
vt 0.377617 0.720091
vt 0.377617 0.681244
vt 0.266205 0.681244
vt 0.266205 0.720091
vt 0.377617 0.720091
vt 0.377617 0.681244
vt 0.266205 0.681244
vt 0.266205 0.720091
vt 0.377617 0.720091
vt 0.377617 0.681244
vt 0.266205 0.681244
vt 0.266205 0.720091
vn -1.0000 0.0000 0.0000
vn 1.0000 0.0000 0.0000
vn 0.0000 0.3827 -0.9239
vn 0.0000 -0.9239 -0.3827
vn 0.0000 -0.3827 0.9239
vn 0.0000 0.9239 0.3827
vn 0.0000 0.9239 -0.3827
vn 0.0000 -0.3827 -0.9239
vn 0.0000 -0.9239 0.3827
vn 0.0000 0.3827 0.9239
usemtl Material.001
s off
f 2/1/1 1/2/1 8/3/1 7/4/1 6/5/1 5/6/1 4/7/1 3/8/1
f 9/9/2 11/10/2 12/11/2 13/12/2 14/13/2 15/14/2 16/15/2 10/16/2
f 7/17/3 8/18/3 16/19/3 15/20/3
f 5/21/4 6/22/4 14/23/4 13/24/4
f 3/25/5 4/26/5 12/27/5 11/28/5
f 1/29/6 2/30/6 9/31/6 10/32/6
f 8/33/7 1/34/7 10/35/7 16/36/7
f 6/37/8 7/38/8 15/39/8 14/40/8
f 4/41/9 5/42/9 13/43/9 12/44/9
f 2/45/10 3/46/10 11/47/10 9/48/10
f 18/49/2 19/50/2 20/51/2 21/52/2 22/53/2 23/54/2 24/55/2 17/56/2
f 25/57/1 26/58/1 32/59/1 31/60/1 30/61/1 29/62/1 28/63/1 27/64/1
f 23/65/3 31/66/3 32/67/3 24/68/3
f 21/69/4 29/70/4 30/71/4 22/72/4
f 19/73/5 27/74/5 28/75/5 20/76/5
f 17/77/6 26/78/6 25/79/6 18/80/6
f 24/81/7 32/82/7 26/83/7 17/84/7
f 22/85/8 30/86/8 31/87/8 23/88/8
f 20/89/9 28/90/9 29/91/9 21/92/9
f 18/93/10 25/94/10 27/95/10 19/96/10
o wheel_front_wheel
v 1.069433 1.893734 -2.913417
v 1.069433 1.622048 -2.257508
v 1.069433 0.966139 -1.985822
v 1.069433 0.310230 -2.257508
v 1.069433 0.038544 -2.913417
v 1.069433 0.310231 -3.569325
v 1.069433 0.966139 -3.841012
v 1.069433 1.622048 -3.569325
v 1.937256 1.622048 -2.257508
v 1.937256 1.893734 -2.913417
v 1.937256 0.966139 -1.985822
v 1.937256 0.310230 -2.257508
v 1.937256 0.038544 -2.913417
v 1.937256 0.310231 -3.569325
v 1.937256 0.966139 -3.841012
v 1.937256 1.622048 -3.569325
v -1.069433 1.893734 -2.913417
v -1.069433 1.622048 -2.257508
v -1.069433 0.966139 -1.985822
v -1.069433 0.310231 -2.257508
v -1.069433 0.038544 -2.913417
v -1.069433 0.310231 -3.569325
v -1.069433 0.966139 -3.841012
v -1.069433 1.622048 -3.569325
v -1.937256 1.622048 -2.257508
v -1.937256 1.893734 -2.913417
v -1.937256 0.966139 -1.985822
v -1.937256 0.310231 -2.257508
v -1.937256 0.038544 -2.913417
v -1.937256 0.310231 -3.569325
v -1.937256 0.966139 -3.841012
v -1.937256 1.622048 -3.569325
vt 0.276516 0.720464
vt 0.520581 0.821559
vt 0.764646 0.720464
vt 0.865741 0.476399
vt 0.764646 0.232334
vt 0.520581 0.131239
vt 0.276516 0.232334
vt 0.175421 0.476399
vt 0.276516 0.720464
vt 0.175421 0.476399
vt 0.276516 0.232334
vt 0.520581 0.131239
vt 0.764646 0.232334
vt 0.865741 0.476399
vt 0.764646 0.720464
vt 0.520581 0.821559
vt 0.377617 0.720091
vt 0.266205 0.720091
vt 0.266205 0.681244
vt 0.377617 0.681244
vt 0.377617 0.720091
vt 0.266205 0.720091
vt 0.266205 0.681244
vt 0.377617 0.681244
vt 0.377617 0.720091
vt 0.266205 0.720091
vt 0.266205 0.681244
vt 0.377617 0.681244
vt 0.377617 0.720091
vt 0.266205 0.720091
vt 0.266205 0.681244
vt 0.377617 0.681244
vt 0.377617 0.720091
vt 0.266205 0.720091
vt 0.266205 0.681244
vt 0.377617 0.681244
vt 0.377617 0.720091
vt 0.266205 0.720091
vt 0.266205 0.681244
vt 0.377617 0.681244
vt 0.377617 0.720091
vt 0.266205 0.720091
vt 0.266205 0.681244
vt 0.377617 0.681244
vt 0.377617 0.720091
vt 0.266205 0.720091
vt 0.266205 0.681244
vt 0.377617 0.681244
vt 0.276516 0.720464
vt 0.175421 0.476399
vt 0.276516 0.232334
vt 0.520581 0.131239
vt 0.764646 0.232334
vt 0.865741 0.476399
vt 0.764646 0.720464
vt 0.520581 0.821559
vt 0.276516 0.720464
vt 0.520581 0.821559
vt 0.764646 0.720464
vt 0.865741 0.476399
vt 0.764646 0.232334
vt 0.520581 0.131239
vt 0.276516 0.232334
vt 0.175421 0.476399
vt 0.377617 0.720091
vt 0.377617 0.681244
vt 0.266205 0.681244
vt 0.266205 0.720091
vt 0.377617 0.720091
vt 0.377617 0.681244
vt 0.266205 0.681244
vt 0.266205 0.720091
vt 0.377617 0.720091
vt 0.377617 0.681244
vt 0.266205 0.681244
vt 0.266205 0.720091
vt 0.377617 0.720091
vt 0.377617 0.681244
vt 0.266205 0.681244
vt 0.266205 0.720091
vt 0.377617 0.720091
vt 0.377617 0.681244
vt 0.266205 0.681244
vt 0.266205 0.720091
vt 0.377617 0.720091
vt 0.377617 0.681244
vt 0.266205 0.681244
vt 0.266205 0.720091
vt 0.377617 0.720091
vt 0.377617 0.681244
vt 0.266205 0.681244
vt 0.266205 0.720091
vt 0.377617 0.720091
vt 0.377617 0.681244
vt 0.266205 0.681244
vt 0.266205 0.720091
vn -1.0000 0.0000 0.0000
vn 1.0000 0.0000 0.0000
vn 0.0000 0.3827 -0.9239
vn 0.0000 -0.9239 -0.3827
vn 0.0000 -0.3827 0.9239
vn 0.0000 0.9239 0.3827
vn 0.0000 0.9239 -0.3827
vn -0.0000 -0.3827 -0.9239
vn 0.0000 -0.9239 0.3827
vn 0.0000 0.3827 0.9239
usemtl Material.001
s off
f 34/97/11 33/98/11 40/99/11 39/100/11 38/101/11 37/102/11 36/103/11 35/104/11
f 41/105/12 43/106/12 44/107/12 45/108/12 46/109/12 47/110/12 48/111/12 42/112/12
f 39/113/13 40/114/13 48/115/13 47/116/13
f 37/117/14 38/118/14 46/119/14 45/120/14
f 35/121/15 36/122/15 44/123/15 43/124/15
f 33/125/16 34/126/16 41/127/16 42/128/16
f 40/129/17 33/130/17 42/131/17 48/132/17
f 38/133/18 39/134/18 47/135/18 46/136/18
f 36/137/19 37/138/19 45/139/19 44/140/19
f 34/141/20 35/142/20 43/143/20 41/144/20
f 50/145/12 51/146/12 52/147/12 53/148/12 54/149/12 55/150/12 56/151/12 49/152/12
f 57/153/11 58/154/11 64/155/11 63/156/11 62/157/11 61/158/11 60/159/11 59/160/11
f 55/161/13 63/162/13 64/163/13 56/164/13
f 53/165/14 61/166/14 62/167/14 54/168/14
f 51/169/15 59/170/15 60/171/15 52/172/15
f 49/173/16 58/174/16 57/175/16 50/176/16
f 56/177/17 64/178/17 58/179/17 49/180/17
f 54/181/18 62/182/18 63/183/18 55/184/18
f 52/185/19 60/186/19 61/187/19 53/188/19
f 50/189/20 57/190/20 59/191/20 51/192/20
o car_shell_Plane
v 1.956223 1.202955 -0.428194
v 2.042022 2.900126 -1.919435
v 2.042022 2.467989 -0.168652
v 1.956223 0.890355 -1.919436
v 1.956223 0.877765 -6.028275
v 2.042022 2.571881 -6.028275
v 2.042022 2.728281 -3.886055
v 1.956223 0.888097 -3.886055
v 2.042022 1.373865 -0.402686
v 2.042022 1.162053 -1.919436
v 2.042022 1.149463 -6.028275
v 2.042022 1.159795 -3.886055
v 2.042022 1.940539 -1.919436
v 2.042022 1.938281 -3.886055
v 2.042022 1.149463 -8.301027
v 2.042022 1.939786 -2.471610
v 2.042022 1.939034 -3.333881
v 2.042022 2.571881 -8.301027
v 1.956223 0.877765 -8.301027
v 2.042022 1.162053 -9.037983
v 1.956223 0.890355 -9.037983
v 1.223457 3.576453 -6.028274
v 1.956223 0.888098 -11.004602
v 2.042022 1.929795 -8.301027
v 2.042022 1.159795 -11.004602
v 2.042022 1.929795 -9.037983
v 2.042022 1.938281 -11.004602
v 2.042022 1.929795 -6.028275
v 2.042022 2.571881 -11.004602
v 2.042022 2.571881 -9.615139
v 2.042022 1.191537 -11.746483
v 2.042022 2.255081 -11.886173
v 2.042022 1.906540 -12.025864
v 2.042022 1.935452 -10.508087
v 2.042022 1.932624 -9.550402
v 1.223457 3.507506 -8.301027
v 1.286751 2.571881 -4.943374
v 1.286751 2.900126 -1.919435
v 1.286751 2.719105 -4.943374
v 1.286751 3.047350 -1.919435
v 1.361672 2.571881 -9.615139
v 1.292564 3.162472 -9.070809
v 0.000000 2.900126 -1.919435
v 0.000000 1.202955 -0.428194
v 0.000000 2.467989 -0.168652
v 0.000000 0.890355 -1.919436
v 0.000000 0.877765 -6.028275
v 0.000000 2.571881 -4.943374
v 0.000000 0.888097 -3.886055
v 0.000000 1.373865 -0.402686
v 0.000000 1.162053 -1.919436
v 0.000000 1.159795 -3.886055
v 0.000000 1.939786 -2.471610
v 0.000000 1.939034 -3.333881
v 0.000000 0.877765 -8.301027
v 0.000000 1.162053 -9.037983
v 0.000000 0.890355 -9.037983
v 0.000000 3.576453 -6.028274
v 0.000000 0.888098 -11.004602
v 0.000000 1.159795 -11.004602
v 0.000000 2.571881 -11.004602
v 0.000000 2.571881 -9.615139
v 0.000000 1.191537 -11.746483
v 0.000000 2.255081 -11.886173
v 0.000000 1.906540 -12.025864
v 0.000000 1.935452 -10.508087
v 0.000000 1.932624 -9.550402
v 0.000000 3.507506 -8.301027
v -1.956223 1.202955 -0.428194
v -2.042022 2.900126 -1.919435
v -2.042022 2.467989 -0.168652
v -1.956223 0.890355 -1.919436
v -1.956223 0.877765 -6.028275
v -2.042022 2.571881 -6.028275
v -2.042022 2.728281 -3.886055
v -1.956223 0.888097 -3.886055
v -2.042022 1.373865 -0.402686
v -2.042022 1.162053 -1.919436
v -2.042022 1.149463 -6.028275
v -2.042022 1.159795 -3.886055
v -2.042022 1.940539 -1.919436
v -2.042022 1.938281 -3.886055
v -2.042022 1.149463 -8.301027
v -2.042022 1.939786 -2.471610
v -2.042022 1.939034 -3.333881
v -2.042022 2.571881 -8.301027
v -1.956223 0.877765 -8.301027
v -2.042022 1.162053 -9.037983
v -1.956223 0.890355 -9.037983
v -1.223457 3.576453 -6.028274
v -1.956223 0.888098 -11.004602
v -2.042022 1.929795 -8.301027
v -2.042022 1.159795 -11.004602
v -2.042022 1.929795 -9.037983
v -2.042022 1.938281 -11.004602
v -2.042022 1.929795 -6.028275
v -2.042022 2.571881 -11.004602
v -2.042022 2.571881 -9.615139
v -2.042022 1.191537 -11.746483
v -2.042022 2.255081 -11.886173
v -2.042022 1.906540 -12.025864
v -2.042022 1.935452 -10.508087
v -2.042022 1.932624 -9.550402
v -1.223457 3.507506 -8.301027
v -1.286751 2.571881 -4.943374
v -1.286751 2.900126 -1.919435
v 0.000000 3.119329 -1.919435
v 0.000000 2.791084 -4.943374
v -1.286751 2.719105 -4.943374
v -1.286751 3.047350 -1.919435
v -1.361672 2.571881 -9.615139
v 0.000000 3.162472 -9.070809
v -1.292564 3.162472 -9.070809
vt 0.975388 0.914158
vt 0.953147 0.914158
vt 0.952378 0.746941
vt 0.974618 0.746941
vt 0.724459 0.370069
vt 0.709892 0.362334
vt 0.688439 0.270790
vt 0.708973 0.254089
vt 0.471446 0.324188
vt 0.412023 0.336898
vt 0.462373 0.282052
vt 0.379742 0.186821
vt 0.439165 0.174110
vt 0.448238 0.216246
vt 0.499466 0.161212
vt 0.544693 0.308521
vt 0.452955 0.449216
vt 0.540292 0.449216
vt 0.403541 0.010731
vt 0.452552 0.000247
vt 0.800654 0.797912
vt 0.739759 0.796501
vt 0.743870 0.619142
vt 0.804764 0.620553
vt 0.952378 0.569535
vt 0.974618 0.569535
vt 0.953315 0.512009
vt 0.975555 0.512009
vt 0.061158 0.999753
vt 0.000247 0.999753
vt 0.001230 0.942228
vt 0.061158 0.942228
vt 0.850760 0.799073
vt 0.854871 0.621715
vt 0.343977 0.023471
vt 0.111278 0.999753
vt 0.111278 0.897176
vt 0.111278 0.788717
vt 0.061379 0.902229
vt 0.061600 0.827474
vt 0.061821 0.788717
vt 0.001054 0.788717
vt 0.003531 0.730808
vt 0.059343 0.709000
vt 0.253114 0.695308
vt 0.267233 0.675005
vt 0.323716 0.708505
vt 0.086549 0.719904
vt 0.546353 0.242683
vt 0.551684 0.166688
vt 0.714303 0.178094
vt 0.578798 0.422381
vt 0.573917 0.408430
vt 0.137045 0.569502
vt 0.171936 0.583925
vt 0.173261 0.708505
vt 0.087740 0.693379
vt 0.556502 0.097987
vt 0.561839 0.021895
vt 0.724459 0.033300
vt 0.719122 0.109393
vt 0.109740 0.531882
vt 0.013252 0.648828
vt 0.724953 0.235187
vt 0.724953 0.057781
vt 0.877576 0.057781
vt 0.877576 0.235187
vt 0.221038 0.562552
vt 0.545187 0.269541
vt 0.102509 0.512009
vt 0.000247 0.628094
vt 0.071786 0.296624
vt 0.029047 0.147194
vt 0.201270 0.094657
vt 0.247688 0.246821
vt 0.189479 0.265390
vt 0.724953 0.402406
vt 0.877576 0.402406
vt 0.724953 0.000247
vt 0.877576 0.000247
vt 0.172979 0.485907
vt 0.100630 0.311819
vt 0.181814 0.280056
vt 0.262581 0.459941
vt 0.417012 0.527829
vt 0.496785 0.525071
vt 0.504400 0.702380
vt 0.423022 0.705139
vt 0.166728 0.511514
vt 0.274854 0.466971
vt 0.563357 0.000247
vt 0.719141 0.011174
vt 0.984284 0.128789
vt 0.984284 0.306277
vt 0.888860 0.306277
vt 0.888860 0.128789
vt 0.238816 0.541072
vt 0.384392 0.528935
vt 0.390402 0.706245
vt 0.000247 0.052784
vt 0.172470 0.000247
vt 0.317705 0.531196
vt 0.293785 0.388212
vt 0.929495 0.561804
vt 0.951883 0.623963
vt 0.984284 0.062941
vt 0.883465 0.062941
vt 0.878071 0.000247
vt 0.984284 0.000247
vt 0.111773 0.709000
vt 0.212138 0.709000
vt 0.207197 0.824414
vt 0.111773 0.824414
vt 0.293775 0.772108
vt 0.343483 0.511514
vt 0.951883 0.801451
vt 0.891023 0.512009
vt 0.599893 0.522312
vt 0.607508 0.640581
vt 0.608923 0.700738
vt 0.731810 0.699202
vt 0.975388 0.914158
vt 0.974618 0.746941
vt 0.952378 0.746941
vt 0.953147 0.914158
vt 0.724459 0.370069
vt 0.708973 0.254089
vt 0.688439 0.270790
vt 0.709892 0.362334
vt 0.471446 0.324188
vt 0.462373 0.282052
vt 0.412023 0.336898
vt 0.379742 0.186821
vt 0.448238 0.216246
vt 0.439165 0.174110
vt 0.544693 0.308521
vt 0.499466 0.161212
vt 0.452955 0.449216
vt 0.540292 0.449216
vt 0.403541 0.010731
vt 0.452552 0.000247
vt 0.800654 0.797912
vt 0.804764 0.620553
vt 0.743870 0.619142
vt 0.739759 0.796501
vt 0.974618 0.569535
vt 0.952378 0.569535
vt 0.975555 0.512009
vt 0.953315 0.512009
vt 0.061158 0.999753
vt 0.061158 0.942228
vt 0.001230 0.942228
vt 0.000247 0.999753
vt 0.850760 0.799073
vt 0.854871 0.621715
vt 0.343977 0.023471
vt 0.111278 0.999753
vt 0.111278 0.897176
vt 0.111278 0.788717
vt 0.061821 0.788717
vt 0.061600 0.827474
vt 0.061379 0.902229
vt 0.059343 0.709000
vt 0.003531 0.730808
vt 0.001054 0.788717
vt 0.253114 0.695308
vt 0.323716 0.708505
vt 0.267233 0.675005
vt 0.086549 0.719904
vt 0.714303 0.178094
vt 0.087740 0.693379
vt 0.173261 0.708505
vt 0.719122 0.109393
vt 0.724459 0.033300
vt 0.013252 0.648828
vt 0.877576 0.235187
vt 0.877576 0.057781
vt 0.000247 0.628094
vt 0.189479 0.265390
vt 0.247688 0.246821
vt 0.201270 0.094657
vt 0.877576 0.402406
vt 0.877576 0.000247
vt 0.262581 0.459941
vt 0.181814 0.280056
vt 0.423022 0.705139
vt 0.504400 0.702380
vt 0.274854 0.466971
vt 0.719141 0.011174
vt 0.888860 0.128789
vt 0.888860 0.306277
vt 0.390402 0.706245
vt 0.172470 0.000247
vt 0.293785 0.388212
vt 0.951883 0.623963
vt 0.929495 0.561804
vt 0.878071 0.000247
vt 0.883465 0.062941
vt 0.207197 0.824414
vt 0.212138 0.709000
vt 0.293775 0.772108
vt 0.343483 0.511514
vt 0.951883 0.801451
vt 0.891023 0.512009
vt 0.607508 0.640581
vt 0.608923 0.700738
vt 0.731810 0.699202
vn 0.9536 -0.3011 0.0015
vn 0.9293 -0.3639 0.0634
vn 1.0000 0.0000 0.0000
vn 0.9536 -0.3011 0.0000
vn 0.9536 -0.3011 -0.0051
vn 0.9535 -0.3011 -0.0129
vn 0.0000 -0.5789 -0.8154
vn 0.0000 -0.1476 0.9890
vn 0.0000 -1.0000 -0.0030
vn 0.0000 -0.5782 0.8159
vn 0.0000 -0.5537 -0.8327
vn 0.0000 -1.0000 0.0000
vn 0.0000 -0.5391 0.8422
vn 0.0000 -0.9787 0.2052
vn 0.0000 0.0000 -1.0000
vn 0.0000 0.9709 0.2396
vn 0.0000 -1.0000 0.0048
vn 0.0000 -0.9999 -0.0171
vn 0.0555 0.9926 -0.1077
vn 0.0000 0.9411 -0.3382
vn 0.0000 0.0000 1.0000
vn 0.0000 0.9995 -0.0303
vn 0.0000 0.3720 -0.9282
vn 0.0000 -0.2092 0.9779
vn 0.0000 -0.9256 -0.3786
vn 0.0000 -0.3639 -0.9314
vn 0.0000 -1.0000 0.0009
vn -0.0332 0.9945 -0.0997
vn 0.7339 0.6420 -0.2219
vn 0.0000 0.6777 -0.7353
vn 0.0000 0.9125 -0.4090
vn 0.0000 0.7337 0.6794
vn 0.6822 0.5559 0.4749
vn -0.1040 0.9919 -0.0724
vn 0.7642 0.6449 -0.0098
vn 0.7854 0.4667 -0.4066
vn 0.0000 1.0000 0.0000
vn -0.9536 -0.3011 0.0015
vn -0.9293 -0.3639 0.0634
vn -1.0000 0.0000 0.0000
vn -0.9536 -0.3011 0.0000
vn -0.9536 -0.3011 -0.0051
vn -0.9535 -0.3011 -0.0129
vn -0.0555 0.9926 -0.1077
vn 0.0332 0.9945 -0.0997
vn -0.7339 0.6420 -0.2219
vn -0.6822 0.5559 0.4749
vn 0.1040 0.9919 -0.0724
vn -0.7642 0.6449 -0.0098
vn -0.7854 0.4667 -0.4066
usemtl Material
s off
f 76/193/21 72/194/21 69/195/21 75/196/21
f 73/197/22 65/198/22 68/199/22 74/200/22
f 77/201/23 74/202/23 80/203/23
f 76/204/23 78/205/23 81/206/23
f 77/201/23 80/203/23 81/206/23 78/205/23 71/207/23 66/208/23
f 73/209/23 74/202/23 77/201/23 66/208/23 67/210/23
f 92/211/23 70/212/23 71/207/23 78/205/23
f 92/213/23 75/214/23 79/215/23 88/216/23
f 75/196/24 69/195/24 83/217/24 79/218/24
f 79/218/25 83/217/25 85/219/25 84/220/25
f 88/221/23 79/222/23 84/223/23 90/224/23
f 70/225/23 92/213/23 88/216/23 82/226/23
f 75/227/23 92/211/23 78/205/23 76/204/23
f 82/228/23 88/221/23 90/224/23 94/229/23
f 93/230/23 94/229/23 90/224/23 99/231/23 98/232/23 91/233/23
f 91/233/23 89/234/23 95/235/23 97/236/23
f 89/237/26 87/238/26 95/239/26
f 93/230/23 91/233/23 97/236/23 96/240/23
f 89/234/23 91/233/23 98/232/23
f 90/224/23 84/223/23 99/231/23
f 115/241/27 117/242/27 80/243/27 74/200/27
f 114/244/28 108/245/28 65/198/28 73/197/28
f 131/246/29 130/247/29 98/248/29 99/249/29
f 118/250/30 116/251/30 76/252/30 81/253/30
f 120/254/31 131/246/31 99/249/31 84/255/31
f 111/256/32 119/257/32 83/258/32 69/259/32
f 130/247/33 124/260/33 89/237/33 98/248/33
f 108/245/34 110/261/34 68/199/34 65/198/34
f 121/262/35 120/254/35 84/255/35 85/263/35
f 107/264/36 109/265/36 67/266/36 66/267/36 102/268/36
f 113/269/37 111/256/37 69/259/37 72/270/37
f 119/257/38 121/271/38 85/272/38 83/258/38
f 172/273/39 171/274/39 104/275/39 103/276/39
f 128/277/40 125/278/40 93/279/40 96/280/40
f 110/261/35 115/241/35 74/200/35 68/199/35
f 112/281/35 172/273/35 103/276/35 101/282/35
f 116/251/41 113/283/41 72/284/41 76/252/41
f 132/285/42 122/286/42 86/287/42 100/288/42
f 124/260/41 123/289/41 87/238/41 89/237/41
f 129/290/43 128/277/43 96/280/43 97/291/43
f 109/265/44 114/292/44 73/293/44 67/266/44
f 123/289/45 127/294/45 95/239/45 87/238/45
f 127/294/46 129/290/46 97/291/46 95/239/46
f 117/242/47 118/250/47 81/253/47 80/243/47
f 101/282/23 103/276/23 104/275/23 102/268/23
f 102/268/41 104/275/41 171/274/41 107/264/41
f 66/267/48 71/295/48 101/282/48 102/268/48
f 82/226/49 106/296/49 100/297/49
f 176/298/50 106/299/50 105/300/50 126/301/50
f 132/285/51 100/288/51 106/299/51 176/298/51
f 112/302/52 101/303/52 86/304/52 122/305/52
f 70/306/53 86/304/53 101/303/53
f 70/307/54 101/282/54 71/295/54
f 70/225/55 82/226/55 100/297/55 86/308/55
f 82/226/56 105/309/56 106/296/56
f 126/310/57 105/311/57 93/279/57 125/278/57
f 94/312/57 93/279/57 105/311/57
f 94/312/57 105/311/57 82/313/57
f 144/314/58 143/315/58 137/316/58 140/317/58
f 141/318/59 142/319/59 136/320/59 133/321/59
f 145/322/60 148/323/60 142/324/60
f 144/325/60 149/326/60 146/327/60
f 145/322/60 134/328/60 139/329/60 146/327/60 149/326/60 148/323/60
f 141/330/60 135/331/60 134/328/60 145/322/60 142/324/60
f 160/332/60 146/327/60 139/329/60 138/333/60
f 160/334/60 156/335/60 147/336/60 143/337/60
f 143/315/61 147/338/61 151/339/61 137/316/61
f 147/338/62 152/340/62 153/341/62 151/339/62
f 156/342/60 158/343/60 152/344/60 147/345/60
f 138/346/60 150/347/60 156/335/60 160/334/60
f 143/348/60 144/325/60 146/327/60 160/332/60
f 150/349/60 162/350/60 158/343/60 156/342/60
f 161/351/60 159/352/60 166/353/60 167/354/60 158/343/60 162/350/60
f 159/352/60 165/355/60 163/356/60 157/357/60
f 157/358/63 163/359/63 155/360/63
f 161/351/60 164/361/60 165/355/60 159/352/60
f 157/357/60 166/353/60 159/352/60
f 158/343/60 167/354/60 152/344/60
f 115/241/27 142/319/27 148/362/27 117/242/27
f 114/244/28 141/318/28 133/321/28 108/245/28
f 131/246/29 167/363/29 166/364/29 130/247/29
f 118/250/30 149/365/30 144/366/30 116/251/30
f 120/254/31 152/367/31 167/363/31 131/246/31
f 111/256/32 137/368/32 151/369/32 119/257/32
f 130/247/33 166/364/33 157/358/33 124/260/33
f 108/245/34 133/321/34 136/320/34 110/261/34
f 121/262/35 153/370/35 152/367/35 120/254/35
f 107/264/36 170/371/36 134/372/36 135/373/36 109/265/36
f 113/269/37 140/374/37 137/368/37 111/256/37
f 119/257/38 151/369/38 153/375/38 121/271/38
f 172/273/64 173/376/64 174/377/64 171/274/64
f 128/277/40 164/378/40 161/379/40 125/278/40
f 110/261/35 136/320/35 142/319/35 115/241/35
f 112/281/35 169/380/35 173/376/35 172/273/35
f 116/251/41 144/366/41 140/381/41 113/283/41
f 132/285/42 168/382/42 154/383/42 122/286/42
f 124/260/41 157/358/41 155/360/41 123/289/41
f 129/290/43 165/384/43 164/378/43 128/277/43
f 109/265/44 135/373/44 141/385/44 114/292/44
f 123/289/45 155/360/45 163/359/45 127/294/45
f 127/294/46 163/359/46 165/384/46 129/290/46
f 117/242/47 148/362/47 149/365/47 118/250/47
f 169/380/60 170/371/60 174/377/60 173/376/60
f 170/371/41 107/264/41 171/274/41 174/377/41
f 134/372/65 170/371/65 169/380/65 139/386/65
f 150/347/66 168/387/66 177/388/66
f 176/298/50 126/301/50 175/389/50 177/390/50
f 132/285/51 176/298/51 177/390/51 168/382/51
f 112/302/52 122/305/52 154/391/52 169/392/52
f 138/393/67 169/392/67 154/391/67
f 138/394/68 139/386/68 169/380/68
f 138/346/69 154/395/69 168/387/69 150/347/69
f 150/347/70 177/388/70 175/396/70
f 126/310/57 125/278/57 161/379/57 175/397/57
f 162/398/57 175/397/57 161/379/57
f 162/398/57 150/399/57 175/397/57
